<svg width="241" height="68" viewBox="0 0 241 68" fill="none" xmlns="http://www.w3.org/2000/svg">
<path d="M21.6 68H12.96V25.568L9.6 18.848V68H0.96V0.799995H9.408L12.96 9.824V0.799995H21.6V68ZM23.5538 0.799995H36.0338V7.51999H32.1938V31.04H36.0338V37.76H32.1938V61.28H36.0338V68H23.5538V0.799995ZM57.5888 32C57.5888 33.28 56.9808 34.08 55.7648 34.4C56.9808 34.72 57.5888 35.52 57.5888 36.8V65.504C57.5888 67.168 56.7568 68 55.0928 68H37.4288V0.799995H55.0928C56.7568 0.799995 57.5888 1.632 57.5888 3.296V32ZM48.9488 8.672C48.9488 7.904 48.5648 7.51999 47.7968 7.51999H46.0688V31.04H47.7968C48.5648 31.04 48.9488 30.656 48.9488 29.888V8.672ZM48.9488 38.912C48.9488 38.144 48.5648 37.76 47.7968 37.76H46.0688V61.28H47.7968C48.5648 61.28 48.9488 60.896 48.9488 60.128V38.912ZM79.7138 65.504C79.7138 66.208 79.4578 66.816 78.9458 67.328C78.4978 67.776 77.9218 68 77.2178 68H62.0498C61.3458 68 60.7378 67.776 60.2258 67.328C59.7778 66.816 59.5538 66.208 59.5538 65.504V0.895994H68.1938V60.128C68.1938 60.896 68.5778 61.28 69.3458 61.28H69.9218C70.6898 61.28 71.0738 60.896 71.0738 60.128V0.895994H79.7138V65.504ZM81.6788 0.799995H90.3188V61.28H94.1588V68H81.6788V0.799995ZM95.5538 3.296C95.5538 2.592 95.7778 2.016 96.2258 1.568C96.7378 1.056 97.3458 0.799995 98.0498 0.799995H113.218C113.922 0.799995 114.498 1.056 114.946 1.568C115.458 2.016 115.714 2.592 115.714 3.296V68H107.074V47.36H104.194V68H95.5538V3.296ZM104.194 40.64H107.074V8.672C107.074 7.904 106.69 7.51999 105.922 7.51999H105.346C104.578 7.51999 104.194 7.904 104.194 8.672V40.64ZM127.97 37.76C127.074 37.76 126.338 37.472 125.762 36.896C125.186 36.32 124.898 35.584 124.898 34.688V3.296C124.898 2.592 125.122 2.016 125.57 1.568C126.082 1.056 126.69 0.799995 127.394 0.799995H142.562C143.266 0.799995 143.842 1.056 144.29 1.568C144.802 2.016 145.058 2.592 145.058 3.296V29.312H136.418V8.672C136.418 7.904 136.034 7.51999 135.266 7.51999H134.69C133.922 7.51999 133.538 7.904 133.538 8.672V29.888C133.538 30.656 133.922 31.04 134.69 31.04H141.986C142.882 31.04 143.618 31.328 144.194 31.904C144.77 32.48 145.058 33.216 145.058 34.112V65.504C145.058 66.208 144.802 66.816 144.29 67.328C143.842 67.776 143.266 68 142.562 68H127.394C126.69 68 126.082 67.776 125.57 67.328C125.122 66.816 124.898 66.208 124.898 65.504V39.488H133.538V60.128C133.538 60.896 133.922 61.28 134.69 61.28H135.266C136.034 61.28 136.418 60.896 136.418 60.128V38.912C136.418 38.144 136.034 37.76 135.266 37.76H127.97ZM162.767 34.4L165.743 68H158.639L156.143 37.76H155.663V68H147.023V0.799995H155.663V31.04H156.143L158.639 0.799995H165.743L162.767 34.4ZM167.179 3.296C167.179 2.592 167.403 2.016 167.851 1.568C168.363 1.056 168.971 0.799995 169.675 0.799995H184.843C185.547 0.799995 186.123 1.056 186.571 1.568C187.083 2.016 187.339 2.592 187.339 3.296V68H178.699V47.36H175.819V68H167.179V3.296ZM175.819 40.64H178.699V8.672C178.699 7.904 178.315 7.51999 177.547 7.51999H176.971C176.203 7.51999 175.819 7.904 175.819 8.672V40.64ZM192.664 7.51999H188.824V0.799995H205.144V7.51999H201.304V68H192.664V7.51999ZM206.554 0.799995H219.034V7.51999H215.194V31.04H219.034V37.76H215.194V61.28H219.034V68H206.554V0.799995ZM223.501 37.76C222.605 37.76 221.869 37.472 221.293 36.896C220.717 36.32 220.429 35.584 220.429 34.688V3.296C220.429 2.592 220.653 2.016 221.101 1.568C221.613 1.056 222.221 0.799995 222.925 0.799995H238.093C238.797 0.799995 239.373 1.056 239.821 1.568C240.333 2.016 240.589 2.592 240.589 3.296V29.312H231.949V8.672C231.949 7.904 231.565 7.51999 230.797 7.51999H230.221C229.453 7.51999 229.069 7.904 229.069 8.672V29.888C229.069 30.656 229.453 31.04 230.221 31.04H237.517C238.413 31.04 239.149 31.328 239.725 31.904C240.301 32.48 240.589 33.216 240.589 34.112V65.504C240.589 66.208 240.333 66.816 239.821 67.328C239.373 67.776 238.797 68 238.093 68H222.925C222.221 68 221.613 67.776 221.101 67.328C220.653 66.816 220.429 66.208 220.429 65.504V39.488H229.069V60.128C229.069 60.896 229.453 61.28 230.221 61.28H230.797C231.565 61.28 231.949 60.896 231.949 60.128V38.912C231.949 38.144 231.565 37.76 230.797 37.76H223.501Z" fill="black"/>
</svg>
