<svg width="117" height="137" viewBox="0 0 117 137" fill="none" xmlns="http://www.w3.org/2000/svg">
<path d="M21.6 68H12.96V25.568L9.6 18.848V68H0.96V0.799995H9.408L12.96 9.824V0.799995H21.6V68ZM23.5538 0.799995H36.0338V7.51999H32.1938V31.04H36.0338V37.76H32.1938V61.28H36.0338V68H23.5538V0.799995ZM57.5888 32C57.5888 33.28 56.9808 34.08 55.7648 34.4C56.9808 34.72 57.5888 35.52 57.5888 36.8V65.504C57.5888 67.168 56.7568 68 55.0928 68H37.4288V0.799995H55.0928C56.7568 0.799995 57.5888 1.632 57.5888 3.296V32ZM48.9488 8.672C48.9488 7.904 48.5648 7.51999 47.7968 7.51999H46.0688V31.04H47.7968C48.5648 31.04 48.9488 30.656 48.9488 29.888V8.672ZM48.9488 38.912C48.9488 38.144 48.5648 37.76 47.7968 37.76H46.0688V61.28H47.7968C48.5648 61.28 48.9488 60.896 48.9488 60.128V38.912ZM79.7138 65.504C79.7138 66.208 79.4578 66.816 78.9458 67.328C78.4978 67.776 77.9218 68 77.2178 68H62.0498C61.3458 68 60.7378 67.776 60.2258 67.328C59.7778 66.816 59.5538 66.208 59.5538 65.504V0.895994H68.1938V60.128C68.1938 60.896 68.5778 61.28 69.3458 61.28H69.9218C70.6898 61.28 71.0738 60.896 71.0738 60.128V0.895994H79.7138V65.504ZM81.6788 0.799995H90.3188V61.28H94.1588V68H81.6788V0.799995ZM95.5538 3.296C95.5538 2.592 95.7778 2.016 96.2258 1.568C96.7378 1.056 97.3458 0.799995 98.0498 0.799995H113.218C113.922 0.799995 114.498 1.056 114.946 1.568C115.458 2.016 115.714 2.592 115.714 3.296V68H107.074V47.36H104.194V68H95.5538V3.296ZM104.194 40.64H107.074V8.672C107.074 7.904 106.69 7.51999 105.922 7.51999H105.346C104.578 7.51999 104.194 7.904 104.194 8.672V40.64ZM4.032 106.76C3.136 106.76 2.4 106.472 1.824 105.896C1.248 105.32 0.96 104.584 0.96 103.688V72.296C0.96 71.592 1.184 71.016 1.632 70.568C2.144 70.056 2.752 69.8 3.456 69.8H18.624C19.328 69.8 19.904 70.056 20.352 70.568C20.864 71.016 21.12 71.592 21.12 72.296V98.312H12.48V77.672C12.48 76.904 12.096 76.52 11.328 76.52H10.752C9.984 76.52 9.6 76.904 9.6 77.672V98.888C9.6 99.656 9.984 100.04 10.752 100.04H18.048C18.944 100.04 19.68 100.328 20.256 100.904C20.832 101.48 21.12 102.216 21.12 103.112V134.504C21.12 135.208 20.864 135.816 20.352 136.328C19.904 136.776 19.328 137 18.624 137H3.456C2.752 137 2.144 136.776 1.632 136.328C1.184 135.816 0.96 135.208 0.96 134.504V108.488H9.6V129.128C9.6 129.896 9.984 130.28 10.752 130.28H11.328C12.096 130.28 12.48 129.896 12.48 129.128V107.912C12.48 107.144 12.096 106.76 11.328 106.76H4.032ZM38.829 103.4L41.805 137H34.701L32.205 106.76H31.725V137H23.085V69.8H31.725V100.04H32.205L34.701 69.8H41.805L38.829 103.4ZM43.2413 72.296C43.2413 71.592 43.4653 71.016 43.9133 70.568C44.4253 70.056 45.0333 69.8 45.7373 69.8H60.9053C61.6093 69.8 62.1853 70.056 62.6333 70.568C63.1453 71.016 63.4013 71.592 63.4013 72.296V137H54.7613V116.36H51.8813V137H43.2413V72.296ZM51.8813 109.64H54.7613V77.672C54.7613 76.904 54.3773 76.52 53.6093 76.52H53.0333C52.2653 76.52 51.8813 76.904 51.8813 77.672V109.64ZM68.7263 76.52H64.8863V69.8H81.2063V76.52H77.3663V137H68.7263V76.52ZM82.6163 69.8H95.0963V76.52H91.2563V100.04H95.0963V106.76H91.2563V130.28H95.0963V137H82.6163V69.8ZM99.5633 106.76C98.6673 106.76 97.9313 106.472 97.3553 105.896C96.7793 105.32 96.4913 104.584 96.4913 103.688V72.296C96.4913 71.592 96.7153 71.016 97.1633 70.568C97.6753 70.056 98.2833 69.8 98.9873 69.8H114.155C114.859 69.8 115.435 70.056 115.883 70.568C116.395 71.016 116.651 71.592 116.651 72.296V98.312H108.011V77.672C108.011 76.904 107.627 76.52 106.859 76.52H106.283C105.515 76.52 105.131 76.904 105.131 77.672V98.888C105.131 99.656 105.515 100.04 106.283 100.04H113.579C114.475 100.04 115.211 100.328 115.787 100.904C116.363 101.48 116.651 102.216 116.651 103.112V134.504C116.651 135.208 116.395 135.816 115.883 136.328C115.435 136.776 114.859 137 114.155 137H98.9873C98.2833 137 97.6753 136.776 97.1633 136.328C96.7153 135.816 96.4913 135.208 96.4913 134.504V108.488H105.131V129.128C105.131 129.896 105.515 130.28 106.283 130.28H106.859C107.627 130.28 108.011 129.896 108.011 129.128V107.912C108.011 107.144 107.627 106.76 106.859 106.76H99.5633Z" fill="black"/>
</svg>
