<svg width="242" height="99" viewBox="0 0 242 99" fill="none" xmlns="http://www.w3.org/2000/svg">
<path d="M21.6 68H12.96V25.568L9.6 18.848V68H0.96V0.799995H9.408L12.96 9.824V0.799995H21.6V68ZM23.5538 0.799995H36.0338V7.51999H32.1938V31.04H36.0338V37.76H32.1938V61.28H36.0338V68H23.5538V0.799995ZM57.5888 32C57.5888 33.28 56.9808 34.08 55.7648 34.4C56.9808 34.72 57.5888 35.52 57.5888 36.8V65.504C57.5888 67.168 56.7568 68 55.0928 68H37.4288V0.799995H55.0928C56.7568 0.799995 57.5888 1.632 57.5888 3.296V32ZM48.9488 8.672C48.9488 7.904 48.5648 7.51999 47.7968 7.51999H46.0688V31.04H47.7968C48.5648 31.04 48.9488 30.656 48.9488 29.888V8.672ZM48.9488 38.912C48.9488 38.144 48.5648 37.76 47.7968 37.76H46.0688V61.28H47.7968C48.5648 61.28 48.9488 60.896 48.9488 60.128V38.912ZM79.7138 65.504C79.7138 66.208 79.4578 66.816 78.9458 67.328C78.4978 67.776 77.9218 68 77.2178 68H62.0498C61.3458 68 60.7378 67.776 60.2258 67.328C59.7778 66.816 59.5538 66.208 59.5538 65.504V0.895994H68.1938V60.128C68.1938 60.896 68.5778 61.28 69.3458 61.28H69.9218C70.6898 61.28 71.0738 60.896 71.0738 60.128V0.895994H79.7138V65.504ZM81.6788 0.799995H90.3188V61.28H94.1588V68H81.6788V0.799995ZM95.5538 3.296C95.5538 2.592 95.7778 2.016 96.2258 1.568C96.7378 1.056 97.3458 0.799995 98.0498 0.799995H113.218C113.922 0.799995 114.498 1.056 114.946 1.568C115.458 2.016 115.714 2.592 115.714 3.296V68H107.074V47.36H104.194V68H95.5538V3.296ZM104.194 40.64H107.074V8.672C107.074 7.904 106.69 7.51999 105.922 7.51999H105.346C104.578 7.51999 104.194 7.904 104.194 8.672V40.64ZM127.97 37.76C127.074 37.76 126.338 37.472 125.762 36.896C125.186 36.32 124.898 35.584 124.898 34.688V3.296C124.898 2.592 125.122 2.016 125.57 1.568C126.082 1.056 126.69 0.799995 127.394 0.799995H142.562C143.266 0.799995 143.842 1.056 144.29 1.568C144.802 2.016 145.058 2.592 145.058 3.296V29.312H136.418V8.672C136.418 7.904 136.034 7.51999 135.266 7.51999H134.69C133.922 7.51999 133.538 7.904 133.538 8.672V29.888C133.538 30.656 133.922 31.04 134.69 31.04H141.986C142.882 31.04 143.618 31.328 144.194 31.904C144.77 32.48 145.058 33.216 145.058 34.112V65.504C145.058 66.208 144.802 66.816 144.29 67.328C143.842 67.776 143.266 68 142.562 68H127.394C126.69 68 126.082 67.776 125.57 67.328C125.122 66.816 124.898 66.208 124.898 65.504V39.488H133.538V60.128C133.538 60.896 133.922 61.28 134.69 61.28H135.266C136.034 61.28 136.418 60.896 136.418 60.128V38.912C136.418 38.144 136.034 37.76 135.266 37.76H127.97ZM162.767 34.4L165.743 68H158.639L156.143 37.76H155.663V68H147.023V0.799995H155.663V31.04H156.143L158.639 0.799995H165.743L162.767 34.4ZM167.179 3.296C167.179 2.592 167.403 2.016 167.851 1.568C168.363 1.056 168.971 0.799995 169.675 0.799995H184.843C185.547 0.799995 186.123 1.056 186.571 1.568C187.083 2.016 187.339 2.592 187.339 3.296V68H178.699V47.36H175.819V68H167.179V3.296ZM175.819 40.64H178.699V8.672C178.699 7.904 178.315 7.51999 177.547 7.51999H176.971C176.203 7.51999 175.819 7.904 175.819 8.672V40.64ZM192.664 7.51999H188.824V0.799995H205.144V7.51999H201.304V68H192.664V7.51999ZM206.554 0.799995H219.034V7.51999H215.194V31.04H219.034V37.76H215.194V61.28H219.034V68H206.554V0.799995ZM223.501 37.76C222.605 37.76 221.869 37.472 221.293 36.896C220.717 36.32 220.429 35.584 220.429 34.688V3.296C220.429 2.592 220.653 2.016 221.101 1.568C221.613 1.056 222.221 0.799995 222.925 0.799995H238.093C238.797 0.799995 239.373 1.056 239.821 1.568C240.333 2.016 240.589 2.592 240.589 3.296V29.312H231.949V8.672C231.949 7.904 231.565 7.51999 230.797 7.51999H230.221C229.453 7.51999 229.069 7.904 229.069 8.672V29.888C229.069 30.656 229.453 31.04 230.221 31.04H237.517C238.413 31.04 239.149 31.328 239.725 31.904C240.301 32.48 240.589 33.216 240.589 34.112V65.504C240.589 66.208 240.333 66.816 239.821 67.328C239.373 67.776 238.797 68 238.093 68H222.925C222.221 68 221.613 67.776 221.101 67.328C220.653 66.816 220.429 66.208 220.429 65.504V39.488H229.069V60.128C229.069 60.896 229.453 61.28 230.221 61.28H230.797C231.565 61.28 231.949 60.896 231.949 60.128V38.912C231.949 38.144 231.565 37.76 230.797 37.76H223.501Z" fill="white"/>
<mask id="path-2-outside-1_564_27" maskUnits="userSpaceOnUse" x="102.771" y="59.6479" width="37.821" height="13.4421" fill="white">
<rect fill="white" x="102.771" y="59.6479" width="37.821" height="13.4421"/>
<path d="M106.673 69.3285C106.602 69.2946 106.464 69.2452 106.259 69.1801C106.054 69.1151 105.851 69.0351 105.649 68.9402C105.449 68.8434 105.285 68.7315 105.158 68.6045C105.03 68.4758 105.008 68.3318 105.09 68.1725C105.19 67.97 105.327 67.7973 105.503 67.6544C105.679 67.5114 105.85 67.4257 106.015 67.3972C106.182 67.3685 106.324 67.411 106.439 67.5247C106.555 67.6384 106.602 67.8507 106.582 68.1615C106.579 68.2241 106.548 68.2788 106.486 68.3258C106.425 68.3727 106.364 68.4047 106.304 68.422C106.225 68.4464 106.147 68.4362 106.071 68.3915C105.997 68.3465 105.96 68.2919 105.962 68.2277C106.029 67.831 105.988 67.6703 105.842 67.7457C105.695 67.8194 105.577 67.993 105.488 68.2663C105.439 68.415 105.527 68.5329 105.752 68.62C105.978 68.7071 106.223 68.7967 106.489 68.8887C106.756 68.9789 106.985 69.0876 107.178 69.2148C107.371 69.342 107.41 69.5201 107.295 69.749C107.203 69.9046 107.037 70.0554 106.798 70.2012C106.558 70.347 106.313 70.4509 106.063 70.5127C105.815 70.5727 105.598 70.5715 105.411 70.5092C105.223 70.4454 105.135 70.2815 105.147 70.0177C105.179 69.7759 105.216 69.6198 105.256 69.5492C105.297 69.477 105.379 69.3685 105.504 69.2236C105.623 69.1385 105.747 69.106 105.876 69.1263C106.006 69.1447 106.022 69.2165 105.925 69.3417C105.569 69.7576 105.444 70.0091 105.55 70.0961C105.656 70.1832 105.824 70.1871 106.056 70.1078C106.288 70.0268 106.498 69.9018 106.686 69.7328C106.873 69.5622 106.869 69.4274 106.673 69.3285ZM106.805 67.4159C106.938 67.5767 107.054 67.7805 107.153 68.0274C107.252 68.2727 107.333 68.5038 107.396 68.7208C107.436 68.6535 107.465 68.586 107.481 68.5184C107.499 68.4506 107.521 68.3438 107.548 68.1979C107.58 68.0201 107.606 67.8709 107.626 67.7505C107.647 67.6298 107.696 67.5418 107.773 67.4864C107.863 67.4212 107.92 67.4618 107.943 67.6082C107.966 67.7546 107.973 67.9169 107.966 68.0949C107.954 68.321 107.927 68.476 107.885 68.5599C107.944 68.5362 108.013 68.4983 108.09 68.4461C108.169 68.3938 108.248 68.3529 108.328 68.3234C108.403 68.2929 108.477 68.2838 108.551 68.296C108.626 68.3081 108.671 68.3485 108.686 68.4172C108.692 68.4477 108.691 68.5494 108.685 68.7224C108.68 68.8952 108.676 69.0744 108.674 69.2599C108.673 69.4454 108.677 69.6064 108.687 69.7429C108.697 69.8778 108.721 69.9224 108.76 69.8766C108.896 69.7172 108.999 69.6366 109.067 69.6347C109.136 69.6329 109.138 69.7007 109.073 69.8382C109.044 69.8975 109.013 69.962 108.981 70.0315C108.948 70.0995 108.91 70.1558 108.866 70.2006C108.797 70.2927 108.706 70.3293 108.592 70.3105C108.48 70.2915 108.388 70.2503 108.316 70.1869C108.252 70.1341 108.22 70.0158 108.221 69.8321C108.223 69.6482 108.229 69.4638 108.239 69.2789C108.249 69.0924 108.249 68.9383 108.239 68.8165C108.228 68.6931 108.181 68.6654 108.096 68.7332C107.931 68.837 107.813 68.9254 107.74 68.9983C107.668 69.0694 107.598 69.1485 107.53 69.2356C107.566 69.4886 107.567 69.7582 107.533 70.0444C107.5 70.3306 107.37 70.4556 107.144 70.4194C107.066 70.4077 107.022 70.3524 107.013 70.2534C107.004 70.1529 107.006 70.069 107.019 70.0018C107.055 69.8384 107.071 69.6412 107.069 69.4102C107.065 69.1778 107.045 68.9442 107.008 68.7094C106.969 68.4731 106.914 68.2511 106.843 68.0434C106.771 67.8357 106.684 67.6734 106.581 67.5565C106.461 67.422 106.441 67.3335 106.519 67.2911C106.597 67.247 106.692 67.2886 106.805 67.4159ZM109.167 67.4801C109.269 67.2477 109.402 67.0789 109.564 66.9737C109.728 66.8667 109.811 66.8754 109.811 67C109.812 67.1278 109.821 67.3546 109.838 67.6805C109.855 68.0047 109.878 68.2545 109.906 68.4298C110.082 68.3983 110.265 68.4349 110.453 68.5397C110.485 68.5588 110.499 68.5906 110.497 68.6352C110.494 68.6798 110.477 68.6991 110.447 68.6929C110.324 68.6949 110.25 68.7016 110.223 68.713C110.198 68.7227 110.125 68.7391 110.003 68.7622C110.047 68.883 110.092 69.0178 110.136 69.1665C110.181 69.3135 110.259 69.4564 110.371 69.5952C110.667 70.0016 110.937 70.23 111.181 70.2804C111.426 70.3306 111.561 70.0288 111.584 69.3749C111.583 69.1323 111.616 69.0086 111.681 69.0039C111.747 68.9974 111.777 69.097 111.771 69.3027C111.757 69.7603 111.683 70.0958 111.548 70.3091C111.442 70.4829 111.3 70.5839 111.123 70.6122C110.917 70.6424 110.726 70.5675 110.549 70.3874C110.375 70.2072 110.237 70.0454 110.136 69.902C109.993 69.7014 109.885 69.5278 109.811 69.3811C109.737 69.2327 109.669 69.0623 109.608 68.8698C109.527 68.9043 109.451 68.9349 109.381 68.9616C109.31 68.9867 109.249 69.0311 109.198 69.0948C109.185 69.1898 109.187 69.3568 109.205 69.5957C109.223 69.8329 109.205 69.9794 109.151 70.0352C109.095 70.0979 109.015 70.1208 108.911 70.1041C108.807 70.0873 108.753 70.0177 108.747 69.8954C108.738 69.6325 108.751 69.3668 108.787 69.0984C108.821 68.8286 108.863 68.5808 108.913 68.355C108.963 68.129 109.014 67.9375 109.063 67.7805C109.114 67.6218 109.149 67.5216 109.167 67.4801ZM109.555 68.5196C109.542 68.4834 109.533 68.4099 109.528 68.2991C109.524 68.188 109.522 68.0694 109.521 67.9433C109.522 67.8169 109.524 67.6978 109.527 67.5859C109.529 67.4725 109.532 67.3943 109.535 67.3513C109.498 67.3984 109.457 67.4854 109.412 67.6123C109.368 67.7374 109.328 67.8711 109.291 68.0133C109.256 68.1554 109.229 68.2898 109.21 68.4168C109.191 68.5421 109.189 68.6277 109.203 68.6736C109.243 68.6539 109.299 68.628 109.373 68.5961C109.446 68.5626 109.506 68.537 109.555 68.5196ZM112.091 68.2008C112.154 68.3013 112.178 68.3968 112.161 68.4874C112.146 68.5762 112.086 68.5729 111.983 68.4773C111.918 68.4229 111.867 68.3628 111.828 68.2971C111.741 68.1536 111.731 67.9966 111.797 67.8262C111.863 67.6557 111.951 67.4982 112.061 67.3535C111.967 67.3896 111.854 67.4264 111.723 67.4638C111.591 67.4997 111.488 67.5247 111.412 67.5389C111.398 67.9456 111.408 68.2404 111.442 68.4232C111.476 68.6043 111.565 68.8935 111.709 69.2907C111.771 69.4635 111.748 69.6303 111.64 69.7911C111.533 69.9502 111.438 69.9339 111.356 69.7424C111.202 69.4824 111.111 69.1287 111.083 68.6813C111.054 68.2323 111.045 67.8619 111.057 67.5702C110.97 67.5841 110.835 67.5868 110.652 67.5781C110.471 67.5692 110.382 67.5613 110.386 67.5542C110.491 67.661 110.59 67.7636 110.684 67.8619C110.778 67.9586 110.785 68.0685 110.705 68.1914C110.672 68.2446 110.621 68.301 110.551 68.3604C110.483 68.418 110.428 68.4386 110.387 68.4224C110.34 68.4051 110.32 68.374 110.326 68.329C110.33 68.2842 110.36 68.1871 110.413 68.0379C110.42 67.9977 110.378 67.9332 110.286 67.8444C110.195 67.7556 110.126 67.6697 110.08 67.5868C110.034 67.5024 110.047 67.4342 110.121 67.3825C110.195 67.3308 110.402 67.3211 110.74 67.3533C110.775 67.3588 110.831 67.3553 110.906 67.3428C110.983 67.3284 111.05 67.3104 111.106 67.2887C111.204 67.0569 111.314 66.8688 111.435 66.7243C111.557 66.5782 111.626 66.5943 111.643 66.7726C111.636 66.8358 111.614 66.9107 111.577 66.9972C111.541 67.0819 111.521 67.1468 111.515 67.1918C111.811 67.1046 112.086 66.9995 112.339 66.8765C112.494 66.7723 112.612 66.7348 112.695 66.764C112.779 66.7931 112.762 66.9042 112.644 67.0973C112.608 67.1576 112.544 67.2367 112.455 67.3346C112.367 67.4323 112.283 67.5352 112.205 67.6433C112.126 67.7497 112.069 67.8534 112.034 67.9545C111.999 68.0539 112.018 68.136 112.091 68.2008ZM114.292 68.5947C114.044 68.6465 113.807 68.7765 113.58 68.9847C113.354 69.1928 113.193 69.411 113.097 69.6393C113.027 69.8037 112.936 69.8682 112.823 69.8328C112.71 69.7974 112.664 69.7129 112.684 69.5793C112.701 69.4247 112.728 69.2402 112.766 69.0256C112.803 68.8111 112.809 68.6735 112.784 68.6126C112.736 68.6481 112.664 68.6979 112.568 68.7621C112.473 68.8263 112.386 68.8213 112.308 68.7473C112.214 68.6572 112.227 68.567 112.349 68.4766C112.469 68.3865 112.604 68.2936 112.755 68.198C112.76 68.04 112.723 67.8576 112.644 67.6509C112.564 67.4442 112.471 67.2802 112.364 67.1588C112.308 67.0918 112.272 67.0381 112.256 66.9975C112.189 66.9319 112.168 66.8549 112.193 66.7666C112.217 66.6784 112.337 66.6841 112.554 66.7837C112.709 66.8287 112.878 66.8645 113.062 66.8911C113.247 66.9159 113.425 66.8801 113.597 66.7836C113.723 66.7091 113.819 66.6842 113.886 66.7088C113.954 66.7316 113.919 66.8088 113.781 66.9405C113.645 67.0295 113.492 67.0933 113.323 67.1321C113.154 67.1709 112.954 67.1725 112.723 67.1369C112.827 67.2865 112.903 67.4051 112.951 67.4926C113 67.5785 113.051 67.7534 113.104 68.0174C113.247 67.9654 113.425 67.9215 113.637 67.8856C113.849 67.8497 113.939 67.8846 113.908 67.9901C113.903 68.0316 113.803 68.0768 113.607 68.1254C113.411 68.1724 113.265 68.2469 113.17 68.3488C113.174 68.427 113.178 68.5249 113.181 68.6426C113.186 68.7601 113.175 68.8574 113.148 68.9344C113.225 68.8365 113.394 68.723 113.657 68.594C113.92 68.4649 114.102 68.4024 114.202 68.4065C114.363 68.3901 114.449 68.4222 114.46 68.5027C114.473 68.5831 114.417 68.6138 114.292 68.5947ZM117.253 67.5671C117.316 67.6675 117.339 67.7631 117.322 67.8537C117.307 67.9425 117.248 67.9391 117.144 67.8436C117.08 67.7892 117.028 67.7291 116.989 67.6634C116.903 67.5199 116.892 67.3629 116.958 67.1924C117.024 67.022 117.112 66.8644 117.222 66.7197C117.128 66.7558 117.016 66.7926 116.884 66.8301C116.753 66.866 116.649 66.891 116.574 66.9051C116.56 67.3119 116.57 67.6067 116.604 67.7894C116.637 67.9706 116.726 68.2598 116.87 68.657C116.932 68.8297 116.909 68.9965 116.801 69.1574C116.694 69.3164 116.6 69.3002 116.517 69.1086C116.364 68.8487 116.273 68.495 116.244 68.0476C116.215 67.5985 116.207 67.2281 116.218 66.9365C116.132 66.9504 115.997 66.953 115.814 66.9444C115.632 66.9355 115.543 66.9275 115.547 66.9205C115.652 67.0273 115.752 67.1298 115.846 67.2282C115.94 67.3249 115.947 67.4347 115.867 67.5577C115.834 67.6109 115.783 67.6672 115.713 67.7266C115.644 67.7842 115.59 67.8049 115.548 67.7886C115.502 67.7714 115.482 67.7402 115.488 67.6952C115.492 67.6504 115.521 67.5534 115.575 67.4041C115.581 67.364 115.539 67.2995 115.448 67.2106C115.356 67.1218 115.288 67.036 115.241 66.9531C115.195 66.8686 115.209 66.8005 115.283 66.7488C115.357 66.6971 115.563 66.6873 115.902 66.7195C115.937 66.7251 115.992 66.7216 116.068 66.709C116.144 66.6946 116.211 66.6766 116.267 66.6549C116.365 66.4232 116.475 66.2351 116.597 66.0906C116.718 65.9445 116.787 65.9606 116.804 66.1389C116.797 66.2021 116.775 66.2769 116.738 66.3634C116.703 66.4482 116.682 66.513 116.676 66.558C116.972 66.4708 117.247 66.3658 117.501 66.2428C117.655 66.1385 117.774 66.101 117.856 66.1303C117.94 66.1593 117.923 66.2704 117.806 66.4636C117.769 66.5239 117.706 66.603 117.616 66.7009C117.528 66.7986 117.445 66.9015 117.366 67.0095C117.287 67.1159 117.231 67.2197 117.195 67.3207C117.16 67.4202 117.179 67.5023 117.253 67.5671ZM119.106 67.0936C119.072 67.2207 119.067 67.3607 119.091 67.5135C119.114 67.6648 119.16 67.7929 119.227 67.8978C119.292 68.0029 119.293 68.0774 119.23 68.1213C119.166 68.1652 119.089 68.1386 118.998 68.0415C118.882 67.9049 118.795 67.7499 118.74 67.5764C118.684 67.4028 118.678 67.2297 118.722 67.057C118.752 66.9353 118.83 66.8806 118.958 66.8928C119.088 66.9048 119.137 66.9717 119.106 67.0936ZM118.767 66.6752C118.729 66.6602 118.686 66.6679 118.639 66.6983C118.594 66.7285 118.563 66.7527 118.547 66.771C118.436 66.8978 118.34 67.0211 118.258 67.1411C118.176 67.2594 118.119 67.3877 118.089 67.5259C118.108 67.4694 118.165 67.4288 118.258 67.4042C118.371 67.3839 118.449 67.4514 118.492 67.6067C118.537 67.7602 118.616 67.8736 118.728 67.9467C118.834 68.0158 118.867 68.0904 118.827 68.1707C118.788 68.2509 118.716 68.2564 118.613 68.1872C118.545 68.1561 118.437 68.0718 118.289 67.9342C118.143 67.7964 118.073 67.6729 118.081 67.5637C118.067 67.6376 118.063 67.7496 118.068 67.8998C118.074 68.05 118.089 68.172 118.113 68.2657C118.137 68.3661 118.208 68.482 118.326 68.6135C118.443 68.7434 118.56 68.7767 118.675 68.7133C118.851 68.6671 119.03 68.5377 119.21 68.3254C119.391 68.113 119.504 67.8433 119.549 67.5164C119.6 67.3723 119.564 67.1956 119.439 66.9862C119.317 66.7749 119.202 66.6193 119.097 66.5191C119.095 66.5209 119.091 66.5387 119.084 66.5724C119.076 66.6044 119.072 66.6205 119.072 66.6205C119.006 66.7384 118.905 66.7567 118.767 66.6752ZM117.749 68.4678C117.722 68.4007 117.702 68.3474 117.69 68.3078C117.668 68.2171 117.652 68.1378 117.644 68.07C117.641 68.0704 117.638 68.0715 117.637 68.0733C117.634 67.9982 117.633 67.8942 117.633 67.7614C117.631 67.6271 117.651 67.4887 117.69 67.3461C117.743 67.1362 117.829 66.9354 117.949 66.7437C118.006 66.6481 118.08 66.5554 118.17 66.4656C118.262 66.3739 118.369 66.3084 118.49 66.2688L118.287 66.193C118.14 66.1602 118.031 66.1022 117.96 66.0191C117.89 65.9359 118.017 65.899 118.343 65.9082C118.753 65.9496 119.111 66.1016 119.417 66.3641C119.723 66.625 119.889 66.9818 119.915 67.4345C119.924 67.5974 119.891 67.7753 119.816 67.9681C119.742 68.1592 119.642 68.3379 119.515 68.5044C119.389 68.669 119.245 68.8073 119.081 68.9192C118.918 69.0295 118.752 69.0851 118.583 69.0862C118.194 69.0946 117.916 68.8885 117.749 68.4678ZM122.884 66.8756C122.947 66.9761 122.971 67.0716 122.954 67.1622C122.939 67.251 122.879 67.2476 122.776 67.1521C122.711 67.0977 122.66 67.0376 122.621 66.9719C122.534 66.8284 122.524 66.6714 122.59 66.501C122.656 66.3305 122.744 66.1729 122.854 66.0282C122.76 66.0644 122.647 66.1012 122.516 66.1386C122.384 66.1745 122.281 66.1995 122.205 66.2137C122.191 66.6204 122.201 66.9152 122.235 67.098C122.269 67.2791 122.358 67.5683 122.502 67.9655C122.564 68.1383 122.541 68.3051 122.433 68.4659C122.326 68.625 122.231 68.6087 122.149 68.4172C121.995 68.1572 121.904 67.8035 121.876 67.3561C121.847 66.907 121.838 66.5367 121.85 66.245C121.763 66.2589 121.628 66.2616 121.445 66.2529C121.264 66.244 121.175 66.236 121.179 66.229C121.284 66.3358 121.383 66.4384 121.477 66.5367C121.571 66.6334 121.578 66.7432 121.498 66.8662C121.465 66.9194 121.414 66.9758 121.344 67.0352C121.276 67.0927 121.221 67.1134 121.18 67.0972C121.133 67.0799 121.113 67.0488 121.119 67.0038C121.123 66.959 121.153 66.8619 121.206 66.7127C121.213 66.6725 121.171 66.608 121.079 66.5192C120.988 66.4304 120.919 66.3445 120.873 66.2616C120.827 66.1771 120.84 66.109 120.914 66.0573C120.988 66.0056 121.195 65.9959 121.533 66.0281C121.568 66.0336 121.624 66.0301 121.699 66.0175C121.776 66.0032 121.843 65.9852 121.899 65.9635C121.997 65.7317 122.107 65.5436 122.228 65.3991C122.35 65.253 122.419 65.2691 122.436 65.4474C122.429 65.5106 122.407 65.5855 122.37 65.672C122.334 65.7567 122.314 65.8215 122.308 65.8666C122.604 65.7794 122.879 65.6743 123.132 65.5513C123.287 65.4471 123.405 65.4096 123.488 65.4388C123.571 65.4679 123.555 65.579 123.437 65.7721C123.401 65.8324 123.337 65.9115 123.248 66.0094C123.16 66.1071 123.076 66.21 122.998 66.318C122.919 66.4245 122.862 66.5282 122.827 66.6293C122.792 66.7287 122.811 66.8108 122.884 66.8756ZM123.695 65.9226C123.701 66.0546 123.701 66.1915 123.696 66.3332C123.692 66.4747 123.693 66.6107 123.699 66.7411C123.99 66.5873 124.171 66.3872 124.24 66.1409C124.31 65.8945 124.347 65.608 124.351 65.2811C124.361 65.2012 124.421 65.1414 124.531 65.1016C124.642 65.0617 124.733 65.1113 124.803 65.2503C124.848 65.3283 124.855 65.4988 124.823 65.7618C124.792 66.0248 124.779 66.3183 124.784 66.6423C124.79 67.04 124.843 67.3648 124.943 67.6165C125.044 67.8681 125.159 68.0615 125.287 68.1966C125.415 68.3317 125.506 68.4387 125.558 68.5176C125.612 68.5962 125.54 68.6124 125.342 68.5662C125.194 68.5319 125.058 68.442 124.935 68.2964C124.814 68.1505 124.709 67.984 124.618 67.7966C124.528 67.6093 124.456 67.4189 124.403 67.2253C124.35 67.0318 124.318 66.8718 124.307 66.7452C124.228 66.8122 124.142 66.8646 124.049 66.9024C123.956 66.9383 123.851 66.9766 123.733 67.0174C123.745 67.17 123.768 67.2967 123.802 67.3975C123.835 67.4967 123.875 67.6231 123.92 67.7766C123.924 67.8154 123.92 67.8651 123.906 67.9259C123.894 67.9864 123.87 68.0304 123.834 68.0578C123.784 68.095 123.727 68.1069 123.663 68.0934C123.601 68.0798 123.564 68.0507 123.552 68.0063C123.511 67.8752 123.474 67.7248 123.44 67.5551C123.404 67.3841 123.376 67.2334 123.355 67.1031C123.289 67.103 123.243 67.08 123.216 67.0341C123.187 66.9868 123.22 66.9344 123.315 66.8768C123.303 66.7684 123.295 66.6489 123.29 66.5182C123.284 66.3862 123.279 66.2613 123.276 66.1436C123.275 65.6076 123.353 65.3528 123.512 65.3792C123.671 65.404 123.732 65.5851 123.695 65.9226ZM126.718 67.069C126.47 67.1207 126.233 67.2507 126.006 67.459C125.781 67.667 125.62 67.8852 125.523 68.1135C125.453 68.2779 125.362 68.3424 125.249 68.307C125.137 68.2717 125.09 68.1872 125.11 68.0536C125.127 67.899 125.154 67.7144 125.192 67.4999C125.229 67.2854 125.236 67.1477 125.21 67.0869C125.162 67.1223 125.09 67.1721 124.995 67.2363C124.899 67.3005 124.813 67.2956 124.735 67.2215C124.64 67.1315 124.653 67.0413 124.775 66.9509C124.895 66.8607 125.031 66.7678 125.181 66.6723C125.186 66.5142 125.149 66.3318 125.07 66.1251C124.99 65.9184 124.897 65.7544 124.79 65.633C124.735 65.5661 124.699 65.5123 124.682 65.4717C124.615 65.4062 124.594 65.3292 124.619 65.2408C124.643 65.1527 124.763 65.1584 124.981 65.258C125.135 65.3029 125.304 65.3387 125.488 65.3654C125.673 65.3902 125.852 65.3543 126.023 65.2578C126.149 65.1834 126.245 65.1585 126.312 65.183C126.38 65.2058 126.346 65.283 126.208 65.4148C126.071 65.5037 125.918 65.5676 125.749 65.6064C125.58 65.6452 125.38 65.6467 125.149 65.6111C125.253 65.7607 125.329 65.8793 125.378 65.9668C125.426 66.0527 125.477 66.2277 125.531 66.4916C125.673 66.4397 125.851 66.3957 126.063 66.3599C126.275 66.324 126.365 66.3588 126.334 66.4643C126.329 66.5059 126.229 66.551 126.033 66.5996C125.837 66.6466 125.692 66.7211 125.596 66.8231C125.6 66.9012 125.604 66.9991 125.607 67.1168C125.612 67.2343 125.601 67.3316 125.574 67.4087C125.651 67.3107 125.82 67.1972 126.083 67.0682C126.346 66.9392 126.528 66.8767 126.629 66.8807C126.789 66.8643 126.875 66.8964 126.886 66.977C126.9 67.0574 126.843 67.088 126.718 67.069ZM128.124 67.3809C128.129 67.3573 128.142 67.2697 128.161 67.1182C128.18 66.9666 128.194 66.8041 128.204 66.6307C128.23 66.3324 128.235 66.0423 128.22 65.7604C128.207 65.4784 128.141 65.2585 128.024 65.1008C127.897 64.9491 127.895 64.8697 128.019 64.8628C128.144 64.8539 128.259 64.9079 128.364 65.0246C128.568 65.2996 128.668 65.598 128.665 65.9198C128.662 66.2416 128.643 66.558 128.607 66.869C128.75 66.7613 128.951 66.6768 129.211 66.6153C129.47 66.5539 129.654 66.542 129.762 66.5796C129.765 66.5792 129.767 66.5733 129.767 66.5618C129.768 66.5502 129.77 66.5442 129.775 66.5436C129.928 66.6182 129.989 66.7043 129.957 66.8017C129.924 66.8991 129.77 66.9328 129.494 66.9027C129.264 66.9458 129.07 67.0361 128.913 67.1734C128.756 67.3107 128.63 67.4402 128.535 67.5617C128.42 67.7742 128.331 67.9032 128.268 67.9487C128.204 67.9926 128.159 67.9892 128.131 67.9384C128.103 67.8861 128.091 67.8048 128.094 67.6946C128.095 67.5846 128.105 67.48 128.124 67.3809ZM130.12 66.8678C130.123 66.869 130.118 66.845 130.104 66.796C130.089 66.7453 130.084 66.7197 130.087 66.7193C129.998 66.3941 129.981 66.046 130.037 65.6751C130.07 65.5235 130.144 65.416 130.261 65.3525C130.378 65.2889 130.407 65.3689 130.349 65.5925C130.314 65.8379 130.326 66.0537 130.385 66.24C130.444 66.4263 130.512 66.6294 130.59 66.8494C130.7 66.8507 130.817 66.8789 130.942 66.9341C131.069 66.989 131.18 67.0394 131.276 67.085C131.518 67.1897 131.59 67.2644 131.492 67.3092C131.394 67.3524 131.303 67.3563 131.218 67.3208C131.086 67.273 130.945 67.2412 130.793 67.2253C130.642 67.2079 130.512 67.2025 130.403 67.2094C130.291 67.2182 130.216 67.2356 130.178 67.2616C130.142 67.2857 130.08 67.3244 129.993 67.3777C129.937 67.4174 129.872 67.4541 129.797 67.4878C129.723 67.52 129.637 67.5002 129.539 67.4285C129.467 67.3504 129.47 67.2738 129.548 67.1987C129.624 67.1222 129.7 67.0644 129.778 67.0254C129.817 66.9992 129.856 66.978 129.895 66.9618C129.936 66.9437 130.011 66.9123 130.12 66.8678ZM129.669 64.857C129.833 64.822 129.994 64.7776 130.152 64.7239C130.311 64.6683 130.441 64.5867 130.542 64.4791C130.642 64.3717 130.734 64.3138 130.816 64.3053C130.9 64.295 130.896 64.3734 130.803 64.5406C130.703 64.6988 130.558 64.847 130.368 64.9851C130.18 65.1229 130 65.2197 129.828 65.2752C129.674 65.3368 129.567 65.2917 129.509 65.1398C129.451 64.9878 129.504 64.8935 129.669 64.857ZM132.228 64.6215C132.332 64.4299 132.473 64.2781 132.651 64.1661C132.829 64.0524 132.907 64.0609 132.886 64.1914C132.878 64.3137 132.88 64.4815 132.893 64.6947C132.906 64.9063 132.929 65.1298 132.963 65.365C132.997 65.5987 133.041 65.8261 133.096 66.0473C133.151 66.2684 133.217 66.449 133.293 66.5888C133.391 66.7703 133.457 66.9139 133.491 67.0196C133.527 67.125 133.633 67.2711 133.808 67.4578C133.916 67.5626 133.961 67.6563 133.943 67.7388C133.926 67.8214 133.873 67.8844 133.785 67.9281C133.697 67.9733 133.587 67.9958 133.456 67.9955C133.325 67.9968 133.201 67.9686 133.084 67.9108C132.977 67.791 132.94 67.7169 132.973 67.6883C133.006 67.6613 133.059 67.6507 133.131 67.6565C133.205 67.6639 133.274 67.6735 133.339 67.6851C133.405 67.6984 133.417 67.6846 133.376 67.6437C133.225 67.4835 133.097 67.2656 132.991 66.99C132.886 66.7142 132.801 66.4287 132.735 66.1334C132.671 65.8379 132.624 65.5575 132.595 65.2921C132.567 65.025 132.556 64.8198 132.561 64.6764C132.503 64.7476 132.422 64.8879 132.318 65.0974C132.216 65.3068 132.168 65.4823 132.176 65.624C132.184 65.7969 132.191 65.9526 132.196 66.0913C132.204 66.2298 132.187 66.3319 132.146 66.3977C132.02 66.5262 131.928 66.5539 131.868 66.4809C131.808 66.4079 131.778 66.3714 131.778 66.3714C131.778 66.3698 131.778 66.369 131.778 66.369C131.659 66.2032 131.595 65.9544 131.585 65.6227C131.576 65.2894 131.573 65.0339 131.577 64.8563C131.519 64.9274 131.463 65.0876 131.41 65.3368C131.357 65.5844 131.332 65.7785 131.334 65.9193C131.337 66.0616 131.345 66.2181 131.357 66.3887C131.37 66.5593 131.393 66.7164 131.425 66.86C131.445 66.9166 131.452 66.9879 131.446 67.0739C131.442 67.158 131.427 67.2132 131.4 67.2394C131.348 67.2934 131.267 67.3057 131.159 67.2764C131.05 67.2471 130.991 67.1748 130.982 67.0595C130.946 66.5654 130.971 66.1008 131.057 65.6655C131.143 65.2302 131.201 64.9763 131.232 64.9037C131.324 64.6939 131.446 64.5461 131.598 64.4602C131.749 64.3728 131.828 64.3877 131.834 64.505C131.84 64.6421 131.845 64.7743 131.849 64.9017C131.854 65.0289 131.863 65.1525 131.875 65.2724C131.94 65.0939 132.009 64.9509 132.083 64.8435C132.158 64.7358 132.206 64.6618 132.228 64.6215ZM133.735 66.4238C133.739 66.4251 133.733 66.4011 133.719 66.352C133.705 66.3013 133.699 66.2758 133.702 66.2754C133.613 65.9502 133.597 65.6021 133.653 65.2312C133.685 65.0796 133.76 64.9721 133.876 64.9085C133.993 64.845 134.023 64.925 133.965 65.1486C133.929 65.394 133.941 65.6098 134 65.7961C134.059 65.9823 134.127 66.1855 134.205 66.4055C134.315 66.4067 134.433 66.435 134.558 66.4901C134.684 66.5451 134.795 66.5954 134.891 66.6411C135.133 66.7458 135.206 66.8205 135.108 66.8653C135.01 66.9085 134.919 66.9124 134.834 66.8768C134.702 66.8291 134.56 66.7973 134.409 66.7814C134.257 66.7639 134.127 66.7586 134.018 66.7654C133.906 66.7743 133.831 66.7917 133.793 66.8176C133.757 66.8418 133.695 66.8805 133.608 66.9338C133.553 66.9735 133.487 67.0102 133.413 67.0439C133.338 67.0761 133.252 67.0563 133.155 66.9846C133.083 66.9065 133.086 66.8299 133.163 66.7548C133.239 66.6782 133.316 66.6205 133.393 66.5815C133.432 66.5553 133.472 66.5341 133.511 66.5178C133.551 66.4998 133.626 66.4684 133.735 66.4238ZM133.284 64.413C133.449 64.3781 133.61 64.3337 133.767 64.2799C133.926 64.2244 134.056 64.1428 134.158 64.0352C134.258 63.9278 134.349 63.8699 134.432 63.8614C134.516 63.8511 134.511 63.9295 134.419 64.0967C134.318 64.2549 134.173 64.4031 133.984 64.5412C133.796 64.679 133.616 64.7757 133.444 64.8313C133.289 64.8929 133.183 64.8478 133.125 64.6958C133.067 64.5439 133.12 64.4496 133.284 64.413ZM136.212 65.2392C136.275 65.3396 136.298 65.4352 136.282 65.5258C136.266 65.6146 136.207 65.6112 136.103 65.5157C136.039 65.4613 135.987 65.4012 135.948 65.3355C135.862 65.192 135.851 65.035 135.917 64.8645C135.983 64.6941 136.071 64.5365 136.182 64.3918C136.088 64.4279 135.975 64.4647 135.843 64.5022C135.712 64.5381 135.608 64.5631 135.533 64.5772C135.519 64.984 135.529 65.2788 135.563 65.4615C135.596 65.6427 135.685 65.9319 135.829 66.3291C135.891 66.5018 135.868 66.6686 135.76 66.8295C135.653 66.9886 135.559 66.9723 135.476 66.7807C135.323 66.5208 135.232 66.1671 135.203 65.7197C135.174 65.2706 135.166 64.9002 135.178 64.6086C135.091 64.6225 134.956 64.6251 134.773 64.6165C134.591 64.6076 134.503 64.5996 134.507 64.5926C134.612 64.6994 134.711 64.802 134.805 64.9003C134.899 64.997 134.906 65.1068 134.826 65.2298C134.793 65.283 134.742 65.3393 134.672 65.3987C134.604 65.4563 134.549 65.477 134.507 65.4607C134.461 65.4435 134.441 65.4124 134.447 65.3673C134.451 65.3225 134.48 65.2255 134.534 65.0762C134.541 65.0361 134.498 64.9716 134.407 64.8827C134.316 64.7939 134.247 64.7081 134.201 64.6252C134.154 64.5407 134.168 64.4726 134.242 64.4209C134.316 64.3692 134.522 64.3594 134.861 64.3917C134.896 64.3972 134.951 64.3937 135.027 64.3811C135.104 64.3667 135.17 64.3487 135.227 64.327C135.324 64.0953 135.434 63.9072 135.556 63.7627C135.677 63.6166 135.747 63.6327 135.763 63.811C135.756 63.8742 135.735 63.949 135.698 64.0355C135.662 64.1203 135.641 64.1851 135.635 64.2301C135.931 64.143 136.206 64.0379 136.46 63.9149C136.615 63.8106 136.733 63.7731 136.815 63.8024C136.899 63.8314 136.882 63.9425 136.765 64.1357C136.728 64.196 136.665 64.2751 136.575 64.373C136.487 64.4707 136.404 64.5736 136.325 64.6816C136.247 64.788 136.19 64.8918 136.155 64.9928C136.119 65.0923 136.138 65.1744 136.212 65.2392Z"/>
</mask>
</svg>
